<svg width="51" height="51" viewBox="0 0 51 51" fill="none" xmlns="http://www.w3.org/2000/svg">
<path d="M20.5847 0.257349L22.1034 0.251099H29.5284L31.0492 0.257349L32.9534 0.278182L33.8555 0.292765L34.7263 0.315682L35.5659 0.344849L36.3743 0.378182L37.1534 0.421932L37.9034 0.474015L38.6222 0.536515L39.3159 0.605265C42.9409 1.0136 45.4263 1.8886 47.3013 3.7636C49.1763 5.6386 50.0513 8.12193 50.4597 11.749L50.5305 12.4428L50.5909 13.1636L50.643 13.9136L50.6847 14.6907L50.7367 15.9157L50.7618 16.7698L50.7888 18.1115L50.8076 20.0178L50.8159 22.0594L50.8138 28.9615L50.8076 30.4823L50.7868 32.3865L50.7722 33.2886L50.7492 34.1594L50.7201 34.999L50.6867 35.8074L50.643 36.5865L50.5909 37.3365L50.5284 38.0553L50.4597 38.749C50.0513 42.374 49.1763 44.8594 47.3013 46.7344C45.4263 48.6094 42.943 49.4844 39.3159 49.8928L38.6222 49.9636L37.9013 50.024L37.1513 50.0761L36.3743 50.1178L35.1493 50.1698L34.2951 50.1949L32.9534 50.2219L31.0472 50.2407L29.0055 50.249L22.1034 50.2469L20.5826 50.2407L18.6784 50.2198L17.7763 50.2053L16.9055 50.1824L16.0659 50.1532L15.2576 50.1198L14.4784 50.0761L13.7284 50.024L13.0097 49.9615L12.3159 49.8928C8.69092 49.4844 6.2055 48.6094 4.3305 46.7344C2.4555 44.8594 1.5805 42.3761 1.17217 38.749L1.10133 38.0553L1.04092 37.3344L0.988835 36.5844L0.947168 35.8074L0.895085 34.5823L0.870085 33.7282L0.843001 32.3865L0.824251 30.4803L0.815918 28.4386L0.818001 21.5365L0.824251 20.0157L0.845085 18.1115L0.859668 17.2094L0.882585 16.3386L0.911751 15.499L0.945085 14.6907L0.988835 13.9115L1.04092 13.1615L1.10342 12.4428L1.17217 11.749C1.5805 8.12401 2.4555 5.6386 4.3305 3.7636C6.2055 1.8886 8.68883 1.0136 12.3159 0.605265L13.0097 0.534432L13.7305 0.474015L14.4805 0.421932L15.2576 0.380265L16.4826 0.328182L17.3368 0.303182L18.6784 0.276099L20.5847 0.257349ZM14.9618 15.4573H9.25342C9.52425 28.4573 16.0243 36.2699 27.4201 36.2699H28.0659V28.8323C32.2534 29.249 35.4201 32.3115 36.6909 36.2699H42.6076C40.9826 30.3532 36.7118 27.0823 34.0451 25.8323C36.7118 24.2907 40.4618 20.5407 41.3576 15.4573H35.9826C34.8159 19.5823 31.3576 23.3323 28.0659 23.6865V15.4573H22.6909V29.874C19.3576 29.0407 15.1493 24.999 14.9618 15.4573Z" fill="#E4E4E4"/>
</svg>
